<svg xmlns="http://www.w3.org/2000/svg" viewBox="0 0 20 20"  width="100%" height="100%" ><path fill="currentColor" d="M10.9 1.044S13.6 4.6 13.6 10"></path><path fill="none" stroke="currentColor" stroke-linecap="round" stroke-linejoin="round" stroke-width="1.5" d="M10.9 1.044S13.6 4.6 13.6 10"></path><path fill="currentColor" d="M13.6 10c0 5.4-2.7 8.956-2.7 8.956"></path><path fill="none" stroke="currentColor" stroke-linecap="round" stroke-linejoin="round" stroke-width="1.5" d="M13.6 10c0 5.4-2.7 8.956-2.7 8.956"></path><path fill="currentColor" d="M9.1 18.956S6.4 15.4 6.4 10"></path><path fill="none" stroke="currentColor" stroke-linecap="round" stroke-linejoin="round" stroke-width="1.5" d="M9.1 18.956S6.4 15.4 6.4 10"></path><path fill="currentColor" d="M6.4 10c0-5.4 2.7-8.956 2.7-8.956"></path><path fill="none" stroke="currentColor" stroke-linecap="round" stroke-linejoin="round" stroke-width="1.5" d="M6.4 10c0-5.4 2.7-8.956 2.7-8.956"></path><path fill="currentColor" d="M1.567 13.15h16.866"></path><path fill="none" stroke="currentColor" stroke-linecap="round" stroke-linejoin="round" stroke-width="1.5" d="M1.567 13.15h16.866"></path><path fill="currentColor" d="M1.567 6.85h16.866"></path><path fill="none" stroke="currentColor" stroke-linecap="round" stroke-linejoin="round" stroke-width="1.5" d="M1.567 6.85h16.866M1 10a9 9 0 0 0 9 9M10 19a9 9 0 0 0 9-9M19 10a9 9 0 0 0-9-9M10 1a9 9 0 0 0-9 9"></path></svg>